<svg preserveAspectRatio="xMinYMin meet" width="100" height="100" fill="none" xmlns="http://www.w3.org/2000/svg">

    <g mask="url(#stripe)">
    <path stroke="#1f3f93" d="
    M 50,10
    L 10,90
    L 50,50
    L 90,90
    z
" stroke-linejoin="round" stroke-width="10"/>
    <path fill="#4e8acb" stroke="#4e8acb" d="
    M 50,7.5
    L 15,80
    L 50,55
    L 85,80
    z
" stroke-linejoin="round" stroke-width="5"/>

    <path fill="#b2d4f6" stroke="#b2d4f6" d="
    M 50,6
    L 20,94
    L 50,57.5
    L 80,94
    z
" stroke-linejoin="round" stroke-width="2"/>

    <path fill="white" stroke="white" d="
    M 50,35
    L 25,94
    L 50,57.5
    L 75,94
    z
" stroke-linejoin="round" stroke-width="5"/>
    <path fill="#d13e50" stroke="#d13e50" d="
    M 50,50
    L 10,95
    L 20,90
    L 50,66
    L 80,90
    L 90,95
    z
" stroke-linejoin="round" stroke-width="10"/>

    <path fill="#eecf5a" stroke="#eecf5a" d="
    M 50,46.5
    L 22,96
    L 50,69
    L 78,96
    z
" stroke-linejoin="round" stroke-width="3"/>
    </g>
<mask id="stripe">
        <rect width="100" height="100" fill="white"/>
        <rect x="0" y="70" width="30" height="30" fill="black"/>
        <rect x="70" y="70" width="30" height="30" fill="black"/>
        <path stroke="white" fill="white" d="
    M 50,10
    L 10,90
    L 20,90
    L 50,70
    L 80,90
    L 90,90
    z
" stroke-linejoin="round" stroke-width="10"/>
        <path fill="black" stroke="black" d="
    M 50,69
    L 20,100
    L 80,100
    z
" stroke-linejoin="round" stroke-width="7"/>
        <path fill="black" stroke="black" d="
    M 0,100
    L 100,100
" stroke-linejoin="round" stroke-width="10"/>
    </mask>
</svg>

